# xmcd CD database file
#
# Track frame offsets:
#	150
#	18054
#	46661
#
# Disc length: 872 seconds
#
# Revision: 2
# Processed by: cddbd v1.5.1PL0 Copyright (c) Steve Scherf et al.
# Submitted via: CDex 1.51
#
DISCID=12036603
DTITLE=MC Tyrant - 100%ナードコア
DYEAR=2005
DGENRE=Techno
TTITLE0=テクネチウム - どうてい
TTITLE1=赤い人 - ぬぬぬぬぬぬぬぬぬ
TTITLE2=テクネチウム - まいや
EXTD=YEAR: 2005
EXTT0=
EXTT1=
EXTT2=
PLAYORDER=
